<svg xmlns="http://www.w3.org/2000/svg" width="16" height="16" fill="white" viewBox="0 0 16 16">
  <path d="M8 0C3.58 0 0 3.58 0 8c0 3.54 2.29 6.53 5.47 7.59.4.07.55-.17.55-.38v-1.33c-2.23.48-2.7-1.08-2.7-1.08-.36-.92-.88-1.17-.88-1.17-.72-.49.05-.48.05-.48.8.06 1.22.82 1.22.82.71 1.22 1.87.87 2.33.66.07-.52.28-.87.5-1.07-1.78-.2-3.64-.89-3.64-3.95 0-.87.31-1.59.82-2.15-.08-.2-.36-1.02.08-2.12 0 0 .67-.21 2.2.82a7.72 7.72 0 0 1 2.01-.27c.68.003 1.36.092 2.01.27 1.53-1.04 2.2-.82 2.2-.82.45 1.1.17 1.92.08 2.12.51.56.82 1.28.82 2.15 0 3.06-1.87 3.75-3.65 3.95.29.25.54.73.54 1.48v2.2c0 .21.15.46.55.38A8.001 8.001 0 0 0 8 0z"/>
</svg>
